<?xml version="1.0" encoding="UTF-8"?>
<svg version="1.1" viewBox="0 0 99 20" width="99px" height="20px" xmlns="http://www.w3.org/2000/svg">
    <g fill="#1BB934" fill-rule="evenodd">
        <path d="m5.5 20.25c-2.525 0-4.6-1.45-4.6-4.1v-0.05c0-2.925 2.225-4.275 5.4-4.275 1.35 0 2.325 0.225 3.275 0.55v-0.225c0-1.575-0.975-2.45-2.875-2.45-1.05 0-1.9 0.15-2.625 0.375-0.225 0.075-0.375 0.1-0.55 0.1-0.875 0-1.575-0.675-1.575-1.55 0-0.675 0.425-1.25 1.025-1.475 1.2-0.45 2.5-0.7 4.275-0.7 2.075 0 3.575 0.55 4.525 1.5 1 1 1.45 2.475 1.45 4.275v6.1c0 1.025-0.825 1.825-1.85 1.825-1.1 0-1.825-0.775-1.825-1.575v-0.025c-0.925 1.025-2.2 1.7-4.05 1.7zm1.15-2.625c1.775 0 2.975-0.975 2.975-2.35v-0.675c-0.65-0.3-1.5-0.5-2.425-0.5-1.625 0-2.625 0.65-2.625 1.85v0.05c0 1.025 0.85 1.625 2.075 1.625zm8.8741-14.175v-0.05c0-1.1 0.925-1.775 2.125-1.775s2.125 0.675 2.125 1.775v0.05c0 1.1-0.925 1.8-2.125 1.8s-2.125-0.7-2.125-1.8zm0.225 14.8v-9.9c0-1.05 0.85-1.9 1.9-1.9s1.9 0.85 1.9 1.9v9.9c0 1.05-0.85 1.9-1.9 1.9s-1.9-0.85-1.9-1.9zm6.4491 0v-9.9c0-1.05 0.85-1.9 1.9-1.9s1.9 0.85 1.9 1.9v0.6c0.55-1.3 1.45-2.5 2.575-2.5 1.175 0 1.85 0.775 1.85 1.85 0 1-0.65 1.6-1.425 1.775-1.925 0.45-3 1.925-3 4.625v3.55c0 1.05-0.85 1.9-1.9 1.9s-1.9-0.85-1.9-1.9zm10.174 0v-8.4h-0.15c-0.875 0-1.575-0.675-1.575-1.55s0.7-1.575 1.575-1.575h0.15v-0.85c0-1.475 0.375-2.55 1.075-3.25s1.725-1.05 3.075-1.05c0.6 0 1.125 0.025 1.55 0.1 0.65 0.1 1.3 0.675 1.3 1.525s-0.7 1.575-1.55 1.575h-0.325c-0.875 0-1.375 0.45-1.375 1.45v0.525h1.65c0.875 0 1.575 0.675 1.575 1.55s-0.7 1.55-1.575 1.55h-1.6v8.4c0 1.05-0.85 1.9-1.9 1.9s-1.9-0.85-1.9-1.9zm7.9741 0v-9.9c0-1.05 0.85-1.9 1.9-1.9s1.9 0.85 1.9 1.9v0.6c0.55-1.3 1.45-2.5 2.575-2.5 1.175 0 1.85 0.775 1.85 1.85 0 1-0.65 1.6-1.425 1.775-1.925 0.45-3 1.925-3 4.625v3.55c0 1.05-0.85 1.9-1.9 1.9s-1.9-0.85-1.9-1.9zm12.699 2c-2.525 0-4.6-1.45-4.6-4.1v-0.05c0-2.925 2.225-4.275 5.4-4.275 1.35 0 2.325 0.225 3.275 0.55v-0.225c0-1.575-0.975-2.45-2.875-2.45-1.05 0-1.9 0.15-2.625 0.375-0.225 0.075-0.375 0.1-0.55 0.1-0.875 0-1.575-0.675-1.575-1.55 0-0.675 0.425-1.25 1.025-1.475 1.2-0.45 2.5-0.7 4.275-0.7 2.075 0 3.575 0.55 4.525 1.5 1 1 1.45 2.475 1.45 4.275v6.1c0 1.025-0.825 1.825-1.85 1.825-1.1 0-1.825-0.775-1.825-1.575v-0.025c-0.925 1.025-2.2 1.7-4.05 1.7zm1.15-2.625c1.775 0 2.975-0.975 2.975-2.35v-0.675c-0.65-0.3-1.5-0.5-2.425-0.5-1.625 0-2.625 0.65-2.625 1.85v0.05c0 1.025 0.85 1.625 2.075 1.625zm8.9241 0.625v-9.9c0-1.05 0.85-1.9 1.9-1.9s1.9 0.85 1.9 1.9v0.15c0.875-1.125 2.025-2.15 3.95-2.15 1.75 0 3.075 0.775 3.775 2.125 1.175-1.375 2.575-2.125 4.4-2.125 2.825 0 4.525 1.7 4.525 4.925v6.975c0 1.05-0.85 1.9-1.9 1.9s-1.9-0.85-1.9-1.9v-5.725c0-1.8-0.8-2.725-2.225-2.725s-2.3 0.925-2.3 2.725v5.725c0 1.05-0.85 1.9-1.9 1.9s-1.9-0.85-1.9-1.9v-5.725c0-1.8-0.8-2.725-2.225-2.725s-2.3 0.925-2.3 2.725v5.725c0 1.05-0.85 1.9-1.9 1.9s-1.9-0.85-1.9-1.9zm25.899-6h5.725c-0.225-1.7-1.225-2.85-2.825-2.85-1.575 0-2.6 1.125-2.9 2.85zm7.925 6.425c-1.175 1-2.7 1.625-4.65 1.625-4.025 0-7-2.825-7-6.925v-0.05c0-3.825 2.725-6.975 6.625-6.975 4.475 0 6.45 3.675 6.45 6.45 0 1.1-0.775 1.825-1.775 1.825h-7.525c0.375 1.725 1.575 2.625 3.275 2.625 1.05 0 1.925-0.325 2.7-0.9 0.275-0.2 0.525-0.3 0.925-0.3 0.85 0 1.475 0.65 1.475 1.5 0 0.5-0.225 0.875-0.5 1.125z"/>
    </g>
</svg>
